<svg width="300" height="300" viewBox="0 0 300 300" fill="none" xmlns="http://www.w3.org/2000/svg">
<path d="M17.17 300H22.83L30 292.83L37.17 300H42.83L30 287.17L17.17 300Z" fill="#BEBEBE"/>
<path d="M77.17 300H82.83L90 292.83L97.17 300H102.83L90 287.17L77.17 300Z" fill="#BEBEBE"/>
<path d="M0 300H2.83L30 272.83L57.17 300H62.83L90 272.83L117.17 300H122.83L150 272.83L177.17 300H182.83L210 272.83L237.17 300H242.83L270 272.83L297.17 300H300V297.17L292.83 290L300 282.83V277.17L290 287.17L282.83 280L300 262.83V257.17L280 277.17L272.83 270L300 242.83V237.17L292.83 230L300 222.83V217.17L290 227.17L282.83 220L300 202.83V197.17L280 217.17L272.83 210L300 182.83V177.17L292.83 170L300 162.83V157.17L290 167.17L282.83 160L300 142.83V137.17L280 157.17L272.83 150L300 122.83V117.17L292.83 110L300 102.83V97.17L290 107.17L282.83 100L300 82.83V77.17L280 97.17L272.83 90L300 62.83V57.17L292.83 50L300 42.83V37.17L290 47.17L282.83 40L300 22.83V17.17L280 37.17L272.83 30L300 2.83V0H297.17L290 7.17L282.83 0H277.17L287.17 10L280 17.17L270 7.17L260 17.17L252.83 10L262.83 0H257.17L250 7.17L242.83 0H237.17L230 7.17L222.83 0H217.17L227.17 10L220 17.17L210 7.17L200 17.17L192.83 10L202.83 0H197.17L190 7.17L182.83 0H177.17L170 7.17L162.83 0H157.17L167.17 10L160 17.17L150 7.17L140 17.17L132.83 10L142.83 0H137.17L130 7.17L122.83 0H117.17L110 7.17L102.83 0H97.17L107.17 10L100 17.17L90 7.17L80 17.17L72.83 10L82.83 0H77.17L70 7.17L62.83 0H57.17L50 7.17L42.83 0H37.17L47.17 10L40 17.17L30 7.17L20 17.17L12.83 10L22.83 0H17.17L10 7.17L2.83 0H0V2.83L27.17 30L20 37.17L0 17.17V22.83L17.17 40L10 47.17L0 37.17V42.83L7.17 50L0 57.17V62.83L27.17 90L20 97.17L0 77.17V82.83L17.17 100L10 107.17L0 97.17V102.83L7.17 110L0 117.17V122.83L27.17 150L20 157.17L0 137.17V142.83L17.17 160L10 167.17L0 157.17V162.83L7.17 170L0 177.17V182.83L27.17 210L20 217.17L0 197.17V202.83L17.17 220L10 227.17L0 217.17V222.83L7.17 230L0 237.17V242.83L27.17 270L20 277.17L0 257.17V262.83L17.17 280L10 287.17L0 277.17V282.83L7.17 290L0 297.17V300ZM60 297.17L52.83 290L60 282.83L67.17 290L60 297.17ZM70 287.17L60 277.17L50 287.17L42.83 280L60 262.83L77.17 280L70 287.17ZM80 277.17L60 257.17L40 277.17L32.83 270L60 242.83L87.17 270L80 277.17ZM210 227.17L190 247.17L182.83 240L210 212.83L237.17 240L230 247.17L210 227.17ZM227.17 250L220 257.17L210 247.17L200 257.17L192.83 250L210 232.83L227.17 250ZM150 227.17L130 247.17L122.83 240L150 212.83L177.17 240L170 247.17L150 227.17ZM167.17 250L160 257.17L150 247.17L140 257.17L132.83 250L150 232.83L167.17 250ZM90 227.17L70 247.17L62.83 240L90 212.83L117.17 240L110 247.17L90 227.17ZM107.17 250L100 257.17L90 247.17L80 257.17L72.83 250L90 232.83L107.17 250ZM147.17 90L140 97.17L120 77.17L100 97.17L92.83 90L120 62.83L147.17 90ZM112.83 50L120 42.83L127.17 50L120 57.17L112.83 50ZM207.17 90L200 97.17L180 77.17L160 97.17L152.83 90L180 62.83L207.17 90ZM172.83 50L180 42.83L187.17 50L180 57.17L172.83 50ZM180 197.17L160 217.17L152.83 210L180 182.83L207.17 210L200 217.17L180 197.17ZM197.17 220L190 227.17L180 217.17L170 227.17L162.83 220L180 202.83L197.17 220ZM120 197.17L100 217.17L92.83 210L120 182.83L147.17 210L140 217.17L120 197.17ZM137.17 220L130 227.17L120 217.17L110 227.17L102.83 220L120 202.83L137.17 220ZM177.17 120L170 127.17L150 107.17L130 127.17L122.83 120L150 92.83L177.17 120ZM142.83 80L150 72.83L157.17 80L150 87.17L142.83 80ZM150 167.17L130 187.17L122.83 180L150 152.83L177.17 180L170 187.17L150 167.17ZM167.17 190L160 197.17L150 187.17L140 197.17L132.83 190L150 172.83L167.17 190ZM150 132.83L157.17 140L150 147.17L142.83 140L150 132.83ZM140 137.17L132.83 130L150 112.83L167.17 130L160 137.17L150 127.17L140 137.17ZM172.83 170L180 162.83L187.17 170L180 177.17L172.83 170ZM180 157.17L170 167.17L162.83 160L180 142.83L197.17 160L190 167.17L180 157.17ZM180 137.17L160 157.17L152.83 150L180 122.83L207.17 150L200 157.17L180 137.17ZM172.83 110L180 102.83L187.17 110L180 117.17L172.83 110ZM180 97.17L170 107.17L162.83 100L180 82.83L197.17 100L190 107.17L180 97.17ZM130 107.17L120 97.17L110 107.17L102.83 100L120 82.83L137.17 100L130 107.17ZM120 102.83L127.17 110L120 117.17L112.83 110L120 102.83ZM147.17 150L140 157.17L120 137.17L100 157.17L92.83 150L120 122.83L147.17 150ZM120 142.83L137.17 160L130 167.17L120 157.17L110 167.17L102.83 160L120 142.83ZM120 162.83L127.17 170L120 177.17L112.83 170L120 162.83ZM142.83 200L150 192.83L157.17 200L150 207.17L142.83 200ZM202.83 200L210 192.83L217.17 200L210 207.17L202.83 200ZM210 187.17L200 197.17L192.83 190L210 172.83L227.17 190L220 197.17L210 187.17ZM210 167.17L190 187.17L182.83 180L210 152.83L237.17 180L230 187.17L210 167.17ZM202.83 140L210 132.83L217.17 140L210 147.17L202.83 140ZM210 127.17L200 137.17L192.83 130L210 112.83L227.17 130L220 137.17L210 127.17ZM210 107.17L190 127.17L182.83 120L210 92.83L237.17 120L230 127.17L210 107.17ZM202.83 80L210 72.83L217.17 80L210 87.17L202.83 80ZM210 67.17L200 77.17L192.83 70L210 52.83L227.17 70L220 77.17L210 67.17ZM160 77.17L150 67.17L140 77.17L132.83 70L150 52.83L167.17 70L160 77.17ZM100 77.17L90 67.17L80 77.17L72.83 70L90 52.83L107.17 70L100 77.17ZM90 72.83L97.17 80L90 87.17L82.83 80L90 72.83ZM117.17 120L110 127.17L90 107.17L70 127.17L62.83 120L90 92.83L117.17 120ZM90 112.83L107.17 130L100 137.17L90 127.17L80 137.17L72.83 130L90 112.83ZM90 132.83L97.17 140L90 147.17L82.83 140L90 132.83ZM117.17 180L110 187.17L90 167.17L70 187.17L62.83 180L90 152.83L117.17 180ZM90 172.83L107.17 190L100 197.17L90 187.17L80 197.17L72.83 190L90 172.83ZM90 192.83L97.17 200L90 207.17L82.83 200L90 192.83ZM112.83 230L120 222.83L127.17 230L120 237.17L112.83 230ZM172.83 230L180 222.83L187.17 230L180 237.17L172.83 230ZM232.83 230L240 222.83L247.17 230L240 237.17L232.83 230ZM240 217.17L230 227.17L222.83 220L240 202.83L257.17 220L250 227.17L240 217.17ZM240 197.17L220 217.17L212.83 210L240 182.83L267.17 210L260 217.17L240 197.17ZM232.83 170L240 162.83L247.17 170L240 177.17L232.83 170ZM240 157.17L230 167.17L222.83 160L240 142.83L257.17 160L250 167.17L240 157.17ZM240 137.17L220 157.17L212.83 150L240 122.83L267.17 150L260 157.17L240 137.17ZM232.83 110L240 102.83L247.17 110L240 117.17L232.83 110ZM240 97.17L230 107.17L222.83 100L240 82.83L257.17 100L250 107.17L240 97.17ZM240 77.17L220 97.17L212.83 90L240 62.83L267.17 90L260 97.17L240 77.17ZM232.83 50L240 42.83L247.17 50L240 57.17L232.83 50ZM240 37.17L230 47.17L222.83 40L240 22.83L257.17 40L250 47.17L240 37.17ZM237.17 60L230 67.17L210 47.17L190 67.17L182.83 60L210 32.83L237.17 60ZM190 47.17L180 37.17L170 47.17L162.83 40L180 22.83L197.17 40L190 47.17ZM177.17 60L170 67.17L150 47.17L130 67.17L122.83 60L150 32.83L177.17 60ZM130 47.17L120 37.17L110 47.17L102.83 40L120 22.83L137.17 40L130 47.17ZM117.17 60L110 67.17L90 47.17L70 67.17L62.83 60L90 32.83L117.17 60ZM70 47.17L60 37.17L50 47.17L42.83 40L60 22.83L77.17 40L70 47.17ZM60 42.83L67.17 50L60 57.17L52.83 50L60 42.83ZM87.17 90L80 97.17L60 77.17L40 97.17L32.83 90L60 62.83L87.17 90ZM60 82.83L77.17 100L70 107.17L60 97.17L50 107.17L42.83 100L60 82.83ZM60 102.83L67.17 110L60 117.17L52.83 110L60 102.83ZM87.17 150L80 157.17L60 137.17L40 157.17L32.83 150L60 122.83L87.17 150ZM60 142.83L77.17 160L70 167.17L60 157.17L50 167.17L42.83 160L60 142.83ZM60 162.83L67.17 170L60 177.17L52.83 170L60 162.83ZM87.17 210L80 217.17L60 197.17L40 217.17L32.83 210L60 182.83L87.17 210ZM60 202.83L77.17 220L70 227.17L60 217.17L50 227.17L42.83 220L60 202.83ZM60 222.83L67.17 230L60 237.17L52.83 230L60 222.83ZM82.83 260L90 252.83L97.17 260L90 267.17L82.83 260ZM120 297.17L112.83 290L120 282.83L127.17 290L120 297.17ZM130 287.17L120 277.17L110 287.17L102.83 280L120 262.83L137.17 280L130 287.17ZM140 277.17L120 257.17L100 277.17L92.83 270L120 242.83L147.17 270L140 277.17ZM142.83 260L150 252.83L157.17 260L150 267.17L142.83 260ZM180 297.17L172.83 290L180 282.83L187.17 290L180 297.17ZM190 287.17L180 277.17L170 287.17L162.83 280L180 262.83L197.17 280L190 287.17ZM200 277.17L180 257.17L160 277.17L152.83 270L180 242.83L207.17 270L200 277.17ZM202.83 260L210 252.83L217.17 260L210 267.17L202.83 260ZM240 297.17L232.83 290L240 282.83L247.17 290L240 297.17ZM250 287.17L240 277.17L230 287.17L222.83 280L240 262.83L257.17 280L250 287.17ZM260 277.17L240 257.17L220 277.17L212.83 270L240 242.83L267.17 270L260 277.17ZM270 267.17L262.83 260L270 252.83L277.17 260L270 267.17ZM280 257.17L270 247.17L260 257.17L252.83 250L270 232.83L287.17 250L280 257.17ZM297.17 240L290 247.17L270 227.17L250 247.17L242.83 240L270 212.83L297.17 240ZM270 207.17L262.83 200L270 192.83L277.17 200L270 207.17ZM280 197.17L270 187.17L260 197.17L252.83 190L270 172.83L287.17 190L280 197.17ZM297.17 180L290 187.17L270 167.17L250 187.17L242.83 180L270 152.83L297.17 180ZM270 147.17L262.83 140L270 132.83L277.17 140L270 147.17ZM280 137.17L270 127.17L260 137.17L252.83 130L270 112.83L287.17 130L280 137.17ZM297.17 120L290 127.17L270 107.17L250 127.17L242.83 120L270 92.83L297.17 120ZM270 87.17L262.83 80L270 72.83L277.17 80L270 87.17ZM280 77.17L270 67.17L260 77.17L252.83 70L270 52.83L287.17 70L280 77.17ZM297.17 60L290 67.17L270 47.17L250 67.17L242.83 60L270 32.83L297.17 60ZM270 12.83L277.17 20L270 27.17L262.83 20L270 12.83ZM240 2.83L267.17 30L260 37.17L240 17.17L220 37.17L212.83 30L240 2.83ZM210 12.83L217.17 20L210 27.17L202.83 20L210 12.83ZM180 2.83L207.17 30L200 37.17L180 17.17L160 37.17L152.83 30L180 2.83ZM150 12.83L157.17 20L150 27.17L142.83 20L150 12.83ZM120 2.83L147.17 30L140 37.17L120 17.17L100 37.17L92.83 30L120 2.83ZM90 12.83L97.17 20L90 27.17L82.83 20L90 12.83ZM60 2.83L87.17 30L80 37.17L60 17.17L40 37.17L32.83 30L60 2.83ZM22.83 20L30 12.83L37.17 20L30 27.17L22.83 20ZM2.83 60L30 32.83L57.17 60L50 67.17L30 47.17L10 67.17L2.83 60ZM12.83 70L30 52.83L47.17 70L40 77.17L30 67.17L20 77.17L12.83 70ZM22.83 80L30 72.83L37.17 80L30 87.17L22.83 80ZM2.83 120L30 92.83L57.17 120L50 127.17L30 107.17L10 127.17L2.83 120ZM12.83 130L30 112.83L47.17 130L40 137.17L30 127.17L20 137.17L12.83 130ZM22.83 140L30 132.83L37.17 140L30 147.17L22.83 140ZM2.83 180L30 152.83L57.17 180L50 187.17L30 167.17L10 187.17L2.83 180ZM12.83 190L30 172.83L47.17 190L40 197.17L30 187.17L20 197.17L12.83 190ZM22.83 200L30 192.83L37.17 200L30 207.17L22.83 200ZM2.83 240L30 212.83L57.17 240L50 247.17L30 227.17L10 247.17L2.83 240ZM12.83 250L30 232.83L47.17 250L40 257.17L30 247.17L20 257.17L12.83 250ZM22.83 260L30 252.83L37.17 260L30 267.17L22.83 260Z" fill="#BEBEBE"/>
<path d="M257.17 300H262.83L270 292.83L277.17 300H282.83L270 287.17L257.17 300Z" fill="#BEBEBE"/>
<path d="M197.17 300H202.83L210 292.83L217.17 300H222.83L210 287.17L197.17 300Z" fill="#BEBEBE"/>
<path d="M137.17 300H142.83L150 292.83L157.17 300H162.83L150 287.17L137.17 300Z" fill="#BEBEBE"/>
</svg>
